<?xml version="1.0" ?><svg id="icon" style="enable-background:new 0 0 512 512;" version="1.1" viewBox="0 0 512 512" xml:space="preserve" xmlns="http://www.w3.org/2000/svg" xmlns:xlink="http://www.w3.org/1999/xlink"><g><path d="M256.0002441,44.246582c-82.7993164,0-150.1611328,67.3618164-150.1611328,150.1611328   c0,57.1494141,32.8310547,109.5273438,84.0288086,134.7011719v55.4482422c0,3.8662109,3.1337891,7,7,7h118.2636719   c3.8662109,0,7-3.1337891,7-7v-55.4482422c51.1982422-25.1733398,84.0292969-77.5512695,84.0292969-134.7011719   C406.1608887,111.6083984,338.7995605,44.246582,256.0002441,44.246582z M312.2341309,318.3056641   c-2.4990234,1.1362305-4.1025391,3.6274414-4.1025391,6.3720703v52.8793945H203.8679199v-52.8793945   c0-2.7446289-1.6040039-5.2358398-4.1020508-6.3720703c-48.5537109-22.0800781-79.9267578-70.7128906-79.9267578-123.8979492   c0-75.0795898,61.081543-136.1611328,136.1611328-136.1611328s136.1606445,61.081543,136.1606445,136.1611328   C392.1608887,247.5932617,360.7878418,296.2260742,312.2341309,318.3056641z"/><path d="M306.5632324,416.1767578H205.4372559c-3.8662109,0-7,3.1337891-7,7s3.1337891,7,7,7h101.1259766   c3.8662109,0,7-3.1337891,7-7S310.4294434,416.1767578,306.5632324,416.1767578z"/><path d="M306.5632324,453.753418H205.4372559c-3.8662109,0-7,3.1337891-7,7s3.1337891,7,7,7h101.1259766   c3.8662109,0,7-3.1337891,7-7S310.4294434,453.753418,306.5632324,453.753418z"/></g></svg>