<?xml version="1.0" ?><svg viewBox="0 0 16.33 30" xmlns="http://www.w3.org/2000/svg"><defs><style>.cls-1{fill:none;stroke:#000;stroke-linecap:round;stroke-linejoin:round;}</style></defs><title/><g data-name="Layer 2" id="Layer_2"><g id="Interface-Light"><g id="interface-light-pin"><path class="cls-1" d="M13.44,10.19l1.7-8.45a1,1,0,0,0-1-1.24H2.2a1,1,0,0,0-1,1.24l1.7,8.45a1.06,1.06,0,0,1-.29.94,7.74,7.74,0,0,0-2.09,4.2,1,1,0,0,0,1,1.17H14.79a1,1,0,0,0,1-1.17,7.74,7.74,0,0,0-2.09-4.2A1.06,1.06,0,0,1,13.44,10.19Z"/><line class="cls-1" x1="8.16" x2="8.16" y1="16.5" y2="29.5"/></g></g></g></svg>